<?xml version="1.0" standalone="no"?>
<!DOCTYPE svg PUBLIC "-//W3C//DTD SVG 20010904//EN"
 "http://www.w3.org/TR/2001/REC-SVG-20010904/DTD/svg10.dtd">
<svg version="1.0" xmlns="http://www.w3.org/2000/svg"
 width="900.000000pt" height="900.000000pt" viewBox="0 0 900.000000 900.000000"
 preserveAspectRatio="xMidYMid meet">

<g transform="translate(0.000000,900.000000) scale(0.100000,-0.100000)"
fill="#000000" stroke="none">
<path d="M3995 7959 c-270 -22 -562 -81 -869 -174 -305 -93 -703 -282 -986
-470 -361 -240 -732 -602 -953 -929 -176 -261 -413 -736 -507 -1018 -62 -185
-115 -443 -144 -708 -58 -531 1 -1093 164 -1555 159 -452 345 -765 685 -1155
396 -455 656 -665 1133 -919 291 -156 533 -250 850 -332 304 -78 545 -111 943
-130 377 -18 658 5 1053 88 352 73 553 142 871 298 454 223 729 418 1065 755
221 221 349 394 546 735 270 470 413 875 479 1355 22 160 31 587 16 780 -33
420 -185 955 -382 1340 -154 301 -299 505 -576 811 -175 193 -308 308 -568
494 -207 147 -370 247 -550 335 -438 214 -802 322 -1305 386 -148 19 -791 28
-965 13z m795 -394 c272 -31 509 -67 650 -99 102 -23 295 -89 315 -107 5 -5
-19 -9 -61 -9 -159 0 -370 -53 -542 -135 -201 -96 -378 -224 -573 -412 l-110
-106 -81 88 c-153 164 -390 342 -583 437 -168 82 -330 122 -552 135 -63 3
-110 9 -106 14 15 13 201 78 297 103 219 57 480 101 711 120 116 9 423 -5 635
-29z m1110 -625 c135 -11 236 -37 340 -87 107 -52 224 -171 279 -285 89 -184
114 -343 92 -573 -27 -278 -117 -571 -263 -856 -55 -107 -108 -206 -119 -220
l-18 -24 -34 35 c-19 19 -343 353 -721 742 -377 389 -686 711 -686 716 0 17
191 193 330 304 154 123 248 176 376 213 144 41 249 50 424 35z m-2580 -45
c179 -29 345 -99 527 -221 101 -68 323 -252 323 -268 0 -6 -325 -336 -723
-734 l-723 -723 -141 278 c-94 186 -152 315 -176 389 -82 255 -74 487 28 804
73 226 200 347 448 429 195 64 271 72 437 46z m-1389 -353 c-53 -142 -64 -217
-65 -442 -2 -431 56 -611 428 -1319 47 -90 86 -168 86 -173 0 -10 -1281 -1308
-1291 -1308 -3 0 -22 62 -42 138 -120 445 -131 817 -42 1418 48 327 108 530
225 769 125 256 248 447 448 697 102 127 271 312 279 305 2 -2 -10 -40 -26
-85z m5299 -272 c206 -247 296 -383 411 -615 137 -280 221 -553 270 -880 17
-112 17 -546 0 -760 -12 -156 -42 -383 -61 -470 -20 -93 -73 -265 -81 -265
-11 0 -1249 1287 -1249 1299 0 5 50 104 111 220 290 551 401 881 416 1236 8
188 -8 300 -73 502 -8 26 145 -134 256 -267z m-2594 -332 c223 -228 547 -566
988 -1032 273 -288 376 -403 371 -415 -3 -9 -131 -247 -283 -528 l-277 -513
-959 3 -959 2 -294 550 -293 550 318 320 c781 788 1217 1225 1223 1225 3 0 77
-73 165 -162z m-1842 -2109 c108 -204 195 -373 193 -375 -2 -2 -259 -3 -570
-2 l-566 3 365 373 c201 204 369 372 373 372 4 0 96 -167 205 -371z m3952
-118 l242 -256 -531 -3 c-291 -1 -532 0 -535 2 -2 3 82 168 188 366 l193 362
101 -108 c56 -59 210 -223 342 -363z m-2986 -1696 c294 -553 537 -1010 538
-1015 9 -26 -310 -3 -544 40 -483 87 -1039 325 -1399 598 -296 225 -633 561
-842 840 -110 148 -322 495 -323 530 0 9 210 12 1018 12 l1017 0 535 -1005z
m1427 993 c-17 -44 -725 -1310 -732 -1310 -7 0 -683 1261 -702 1310 -4 9 143
12 717 12 574 0 721 -3 717 -12z m2408 -137 c-90 -178 -239 -405 -362 -551
-176 -210 -481 -506 -703 -685 -389 -313 -1012 -569 -1535 -630 -158 -18 -405
-31 -405 -20 0 4 246 463 546 1021 l546 1014 994 0 995 0 -76 -149z"/>
</g>
</svg>
